{
  "accessors": [
    {
      "bufferView": 2,
      "componentType": 5126,
      "count": 3348,
      "max": [
        17.609800338745117,
        75.45120239257813,
        9.069339752197266
      ],
      "min": [
        -17.293800354003906,
        -0.06604129821062088,
        -12.384200096130371
      ],
      "type": "VEC3"
    },
    {
      "bufferView": 2,
      "byteOffset": 40176,
      "componentType": 5126,
      "count": 3348,
      "max": [
        0.9988470077514648,
        0.9896557927131653,
        0.9995375871658325
      ],
      "min": [
        -0.9987582564353943,
        -0.9987958073616028,
        -0.9999638795852661
      ],
      "type": "VEC3"
    },
    {
      "bufferView": 1,
      "componentType": 5126,
      "count": 3348,
      "max": [
        0.9869430065155029,
        0.9830170273780823
      ],
      "min": [
        -0.49208998680114746,
        -0.49264800548553467
      ],
      "type": "VEC2"
    },
    {
      "bufferView": 0,
      "componentType": 5125,
      "count": 3348,
      "type": "SCALAR"
    }
  ],
  "asset": {
    "extras": {
      "author": "SCP Games (https://sketchfab.com/SCPGames)",
      "license": "CC-BY-4.0 (http://creativecommons.org/licenses/by/4.0/)",
      "source": "https://sketchfab.com/3d-models/hazmat-scp-containment-breach-6361b4474c9b4e65b88b23cda4640a7c",
      "title": "Hazmat (SCP Containment Breach)"
    },
    "generator": "Sketchfab-12.66.0",
    "version": "2.0"
  },
  "bufferViews": [
    {
      "buffer": 0,
      "byteLength": 13392,
      "name": "floatBufferViews",
      "target": 34963
    },
    {
      "buffer": 0,
      "byteLength": 26784,
      "byteOffset": 13392,
      "byteStride": 8,
      "name": "floatBufferViews",
      "target": 34962
    },
    {
      "buffer": 0,
      "byteLength": 80352,
      "byteOffset": 40176,
      "byteStride": 12,
      "name": "floatBufferViews",
      "target": 34962
    }
  ],
  "buffers": [
    {
      "byteLength": 120528,
      "uri": "scene.bin"
    }
  ],
  "images": [
    {
      "uri": "textures/PDX07_-_Default_baseColor.jpeg"
    }
  ],
  "materials": [
    {
      "doubleSided": true,
      "name": "PDX07_-_Default",
      "pbrMetallicRoughness": {
        "baseColorTexture": {
          "index": 0
        },
        "metallicFactor": 0.0,
        "roughnessFactor": 0.8211145618000169
      }
    }
  ],
  "meshes": [
    {
      "name": "hazmat.b3d_PDX07_-_Default_0",
      "primitives": [
        {
          "attributes": {
            "NORMAL": 1,
            "POSITION": 0,
            "TEXCOORD_0": 2
          },
          "indices": 3,
          "material": 0,
          "mode": 4
        }
      ]
    }
  ],
  "nodes": [
    {
      "children": [
        1
      ],
      "matrix": [
        1.0,
        0.0,
        0.0,
        0.0,
        0.0,
        2.220446049250313e-16,
        -1.0,
        0.0,
        0.0,
        1.0,
        2.220446049250313e-16,
        0.0,
        0.0,
        0.0,
        0.0,
        1.0
      ],
      "name": "Sketchfab_model"
    },
    {
      "children": [
        2
      ],
      "matrix": [
        0.009999999776482582,
        0.0,
        0.0,
        0.0,
        0.0,
        0.0,
        0.009999999776482582,
        0.0,
        0.0,
        -0.009999999776482582,
        0.0,
        0.0,
        0.0,
        0.0,
        0.0,
        1.0
      ],
      "name": "b4d4d90ccb1240b5b081897b8473fa9f.fbx"
    },
    {
      "children": [
        3
      ],
      "name": "RootNode"
    },
    {
      "children": [
        4
      ],
      "matrix": [
        100.0,
        0.0,
        0.0,
        0.0,
        0.0,
        99.99999999999866,
        1.6292067073209114e-05,
        0.0,
        0.0,
        -1.6292067073209114e-05,
        99.99999999999866,
        0.0,
        0.0,
        0.0,
        0.0,
        1.0
      ],
      "name": "hazmat.b3d"
    },
    {
      "mesh": 0,
      "name": "hazmat.b3d_PDX07_-_Default_0"
    }
  ],
  "samplers": [
    {
      "magFilter": 9729,
      "minFilter": 9987,
      "wrapS": 10497,
      "wrapT": 10497
    }
  ],
  "scene": 0,
  "scenes": [
    {
      "name": "Sketchfab_Scene",
      "nodes": [
        0
      ]
    }
  ],
  "textures": [
    {
      "sampler": 0,
      "source": 0
    }
  ]
}
